inDegrees=no
num_controls=7
num_derivatives=13
num_iterations=53
num_multipliers=7
num_parameters=0
num_slacks=7
num_states=26
objective=0.425031
objective_accelerations=0.063260
objective_balance=0.006711
objective_effort=0.036913
objective_height=0.316513
objective_ligament=0.001634
solver_duration=677.570136
status=Solve_Succeeded
success=true
DataType=double
version=3
OpenSimVersion=4.5
endheader
time	/jointset/ground_pelvis/pelvis_tilt/value	/jointset/ground_pelvis/pelvis_tx/value	/jointset/ground_pelvis/pelvis_ty/value	/jointset/hip_l/hip_flexion_l/value	/jointset/hip_l/hip_adduction_l/value	/jointset/hip_l/hip_rotation_l/value	/jointset/back/lumbar_extension/value	/jointset/patellofemoral_l/patellar_flexion_l/value	/jointset/knee_l/knee_flexion_l/value	/jointset/knee_l/knee_adduction_l/value	/jointset/knee_l/knee_rotation_l/value	/jointset/ankle_l/ankle_angle_l/value	/jointset/subtalar_l/subtalar_angle_l/value	/jointset/ground_pelvis/pelvis_tilt/speed	/jointset/ground_pelvis/pelvis_tx/speed	/jointset/ground_pelvis/pelvis_ty/speed	/jointset/hip_l/hip_flexion_l/speed	/jointset/hip_l/hip_adduction_l/speed	/jointset/hip_l/hip_rotation_l/speed	/jointset/back/lumbar_extension/speed	/jointset/patellofemoral_l/patellar_flexion_l/speed	/jointset/knee_l/knee_flexion_l/speed	/jointset/knee_l/knee_adduction_l/speed	/jointset/knee_l/knee_rotation_l/speed	/jointset/ankle_l/ankle_angle_l/speed	/jointset/subtalar_l/subtalar_angle_l/speed	/forceset/tau_hip_flexion_l	/forceset/tau_hip_adduction_l	/forceset/tau_hip_rotation_l	/forceset/tau_knee_flexion_l	/forceset/tau_ankle_angle_l	/forceset/tau_subtalar_angle_l	/forceset/tau_lumbar_extension	lambda_cid13_p0	lambda_cid13_p1	lambda_cid13_p2	lambda_cid13_p3	lambda_cid13_p4	lambda_cid13_p5	lambda_cid14_p0	/jointset/ground_pelvis/pelvis_tilt/accel	/jointset/ground_pelvis/pelvis_tx/accel	/jointset/ground_pelvis/pelvis_ty/accel	/jointset/hip_l/hip_flexion_l/accel	/jointset/hip_l/hip_adduction_l/accel	/jointset/hip_l/hip_rotation_l/accel	/jointset/back/lumbar_extension/accel	/jointset/patellofemoral_l/patellar_flexion_l/accel	/jointset/knee_l/knee_flexion_l/accel	/jointset/knee_l/knee_adduction_l/accel	/jointset/knee_l/knee_rotation_l/accel	/jointset/ankle_l/ankle_angle_l/accel	/jointset/subtalar_l/subtalar_angle_l/accel	gamma_cid13_p0	gamma_cid13_p1	gamma_cid13_p2	gamma_cid13_p3	gamma_cid13_p4	gamma_cid13_p5	gamma_cid14_p0
0.5	-0.3567004696053055	-0.04091696009482806	0.7289922537137563	1.315646116693973	-0.2683837308908564	-0.01177780724166202	-0.3406225940379364	0.9760895415490621	0.9760895415487832	-0.05874985567646179	0.1741905943688252	0.2150182100241778	0.03445407847889225	-0.4629376455539757	-0.1555955161350716	-0.6797189952676929	2.511529788535483	0.07435452507106551	0.5481024448214962	-0.6115965495890063	2.547607784225566	2.547607784225585	0.3012887473758383	0.009483849443489113	0.6390122406946019	0.2300143851842935	-0.2058940167470339	0.04306038401387114	-0.009037328987548495	-0.2820935128637084	0.1099123449364212	-0.01006487646270373	0.2007269991266491	-3.560985503559561	6.4957882691693	-3.152653610804207	-4.810665423290814	-597.1034751724801	-25.08949664313288	-10.64557148284086	0.8785474815270682	0.7881919007773641	-0.6283058487886604	-1.616364519245715	0.3035272093512082	-0.7466552438966725	2.008467761839099	-1.644791079755863	-1.64479107975585	-0.1568662508017974	-0.2097094937138177	-1.054382026903697	0.3399175114299284	1.651802211360895e-07	-2.340633620055243e-06	-2.519395277021447e-06	-5.310524686387826e-07	1.84427941888407e-08	-1.296727679829436e-06	4.421869901007343e-08
0.51	-0.3612849607678606	-0.04243339563394702	0.7221651992292797	1.340677115225867	-0.2676254948178729	-0.006338051356080185	-0.3466377702154623	1.001479797865978	1.00147979786591	-0.05574257890542168	0.1742774753903772	0.2213542914523661	0.03677045143329252	-0.4538877263582782	-0.1476819438642195	-0.6855382172552452	2.494355482766086	0.07726113129101551	0.5398244892658054	-0.5913752583825346	2.530102827217153	2.530102827217044	0.3001522620045241	0.007878120752992013	0.6280919680284114	0.2332057696591621	-0.2130417991966763	0.04324425736712739	-0.00843023282843205	-0.2860695966140133	0.1082445430110733	-0.01004936518426623	0.206718222631358	-4.46794506537134	6.918904142850654	-3.529713191964817	-4.403573933922496	-603.2254395712149	-25.17653132915506	-9.002795654856369	0.9291387040584483	0.794279506678513	-0.5356763445112558	-1.815128280804162	0.2800337920706986	-0.8719918179674712	2.038473929911642	-1.854453392718477	-1.854453392737547	-0.09459802258800884	-0.1376353923643338	-1.127770272863389	0.3012655044554987	1.36132828828028e-07	-2.583551335907795e-06	-2.514129669278371e-06	-5.45898130099135e-07	-1.773273377907558e-08	-1.501426485204273e-06	2.265518269348753e-08
0.52	-0.3657767678253647	-0.04387042752706927	0.7152845633307724	1.365526937765066	-0.2668390313899459	-0.0009818002473482566	-0.3524488306549506	1.026684783536549	1.026684783536675	-0.05274717865653255	0.1743479729579025	0.227577786076614	0.03911724155022944	-0.4444008245438986	-0.1397147869357313	-0.690435278073711	2.475294589995989	0.07999999606111159	0.5314014894476232	-0.5707734019816562	2.510553654955364	2.510553654955128	0.2989134429415389	0.006207158636633874	0.6164948799067562	0.2360978176916395	-0.2201895816462978	0.04342813072042318	-0.007823136669374387	-0.2900456803643156	0.1065767410857335	-0.01003385390577687	0.2127094461360832	-5.379059674792184	7.340387797072765	-3.903819926787775	-4.008509561689551	-609.3827922572051	-25.2786089602974	-7.419262694221135	0.9659440052632765	0.7989088323047567	-0.4438736149712571	-1.993681919385855	0.26997891938046	-0.7756640963948195	2.084580800720381	-2.053634130431122	-2.053634130431132	-0.1773329891360191	-0.2227561788861787	-1.189745117996398	0.2800502229518133	9.767328817187512e-08	-2.914757955723527e-06	-2.501942033836183e-06	-5.622833277152288e-07	-6.743283116356938e-08	-1.738413728526503e-06	-8.247049963838506e-09
0.53	-0.3701716647214292	-0.04522763872756898	0.7083596358685675	1.390176832890237	-0.2660265075912546	0.004288590536630923	-0.3580522518803948	1.05168401177608	1.05168401177606	-0.0497646959129486	0.1744025838100674	0.2336817838137467	0.04149074497026143	-0.4345159848385917	-0.1317275885653567	-0.6943925524538124	2.454386690891779	0.08245874488966851	0.5226094924696428	-0.5498723773057559	2.488965719117755	2.488965719117611	0.2975841226540629	0.004751220087113603	0.6041984170026337	0.2385248023051466	-0.2270826991055821	0.04353688871674969	-0.007356879714582436	-0.2942769237485917	0.1049477575381181	-0.01008142860356048	0.2184427259529302	-6.290197347840807	7.785911781629339	-4.277916363019532	-3.518149703656005	-615.5765455964785	-25.35863389723599	-5.99190668730941	1.009126977574833	0.7984908517014471	-0.3480237699871747	-2.18401466293879	0.2274830596452856	-0.9411252919906884	2.098633171059995	-2.260309489834023	-2.260309489820129	-0.111066754031524	-0.1010682974863266	-1.265673514138932	0.2130992161812966	7.322022928363098e-08	-2.999541557079135e-06	-2.425119452997707e-06	-5.576422115781137e-07	-9.191862612729499e-08	-1.84789946129655e-06	-2.280002969779088e-08
0.54	-0.3744658386155593	-0.04650500484190512	0.7013998617784695	1.414608714872967	-0.2651906642652746	0.009469029792156389	-0.3634455088850722	1.076457573421355	1.076457573421184	-0.04679557341331779	0.1744438241558536	0.2396596015943328	0.04388633356355461	-0.4242562241568768	-0.1237457697030203	-0.6974046036522275	2.431691961507563	0.0846639015202956	0.513411183752014	-0.5287405578284593	2.465420336103816	2.465420336103765	0.2962413941474615	0.003533057357544584	0.591258888597763	0.2405148523439004	-0.233975816564842	0.04364564671312565	-0.006890622759757097	-0.2985081671328642	0.1033187739905137	-0.01012900330127828	0.2241760057697959	-7.197839017753694	8.220537877406752	-4.638529463393558	-3.08181754091584	-621.7028662710161	-25.46265667908581	-4.723923707493459	1.040928200544685	0.7978329306972944	-0.2548289786339464	-2.351047975387004	0.2192604797945575	-0.8569264443244041	2.130739760999576	-2.445123565697223	-2.445123565697236	-0.1800146329611525	-0.1752010148961091	-1.318358218145779	0.1926633080012892	6.426370341520099e-08	-2.811686925244816e-06	-2.276785868742058e-06	-5.297379397991502e-07	-8.850774607229807e-08	-1.816319693030137e-06	-1.926447428247857e-08
0.55	-0.3786556758436698	-0.04770265929336816	0.6944146931345019	1.438805000450577	-0.2643340858187603	0.01455586580029396	-0.368626421621416	1.100986158593853	1.100986158593971	-0.04384012307320449	0.1744738115626332	0.245504974287434	0.04629953642894975	-0.4136569085368977	-0.1157927981262631	-0.6994699595913685	2.407283008417513	0.08660171653191444	0.5038810381113551	-0.5074222115116569	2.439990874201129	2.439990874201123	0.2948556085357033	0.002513712888357208	0.5777240877166848	0.2420391386411663	-0.2406159467574481	0.04368918528980897	-0.00655041704984153	-0.3029581727555295	0.1017170871679921	-0.01025314909046575	0.2296557553603584	-8.107112052778575	8.686492579192363	-5.001608007988522	-2.556559277934782	-627.8274948275613	-25.52453067548496	-3.612685552288269	1.077566952399043	0.7927747375820399	-0.1585313984005294	-2.528151197666232	0.1740093338360232	-1.012383571899044	2.135348756144446	-2.637727664746901	-2.637727664740082	-0.1172288698935188	-0.05744346394184685	-1.384899032248598	0.1200146594852274	5.72095754698331e-08	-2.608781000070168e-06	-2.141946014226732e-06	-4.967905363983777e-07	-8.829572161312214e-08	-1.782248499731564e-06	-1.143101506370553e-08
0.5600000000000001	-0.3827378931736472	-0.04882103493577997	0.6874136424317726	1.462748730052916	-0.2634595357577386	0.01954513536245655	-0.3735935575567664	1.125251275114891	1.125251275115288	-0.04089840425811003	0.1744951770645431	0.2512122273698907	0.04872552283109661	-0.402732244529947	-0.1078900078927715	-0.7005810154043829	2.381180766453376	0.08825822442314284	0.4938978945521949	-0.4859851976299088	2.412726605810743	2.412726605810782	0.2934950891395334	0.001808676378708311	0.5636349664692177	0.243071559694271	-0.2472560769500332	0.04373272386653746	-0.00621021134009076	-0.3074081783781918	0.1001154003454803	-0.01037729487959196	0.2351355049509374	-9.014407191513722	9.141886457941675	-5.351337976620993	-2.080915332307259	-633.9074739728405	-25.61322106675565	-2.653882289931165	1.105997877938802	0.7877966620443099	-0.06396895340862292	-2.689705750204103	0.1629990557165253	-0.9475260280244813	2.154473273988641	-2.812084863237235	-2.812084863237249	-0.1749613898434965	-0.112339422988603	-1.429222291423289	0.09429025916920031	5.243832503213967e-08	-2.387813522887126e-06	-2.023298635399791e-06	-4.577913750514347e-07	-9.192232386893133e-08	-1.745187596394401e-06	1.559928719220237e-09
0.5700000000000001	-0.3867094643744556	-0.04986072581273006	0.6804062692039611	1.486423238607991	-0.2625696746533939	0.02443329237440394	-0.3783458850951642	1.149234658944737	1.149234658945107	-0.03797057665256802	0.1745101727320726	0.2567759489462579	0.05115951900202664	-0.3915416486738623	-0.100063728992711	-0.7007325453673515	2.353452820854772	0.08967355065705046	0.4837100193573854	-0.4644828759754771	2.383655022929418	2.383655022929406	0.2920491429988097	0.001199838006732783	0.5490321359631741	0.2436503627517555	-0.2535076079270717	0.04365577116173045	-0.00597020624698455	-0.3121844740754873	0.09870267544264721	-0.01056190221566425	0.2402558592823463	-9.869564300455494	9.610300912738337	-5.698448012727524	-1.54341263892834	-639.960373776246	-25.71223463879605	-1.844349659594139	1.131631604239186	0.7776221338272769	0.03339890621423434	-2.8545664774618	0.1251329497154598	-1.057993924819812	2.147726722125903	-2.998967366879857	-2.998967366887556	-0.1329249269159745	-0.03332347540758532	-1.487501452109654	0.02867021430911315	4.849650739469575e-08	-2.190852588635612e-06	-1.901640553447508e-06	-4.259450399795486e-07	-9.010899034804559e-08	-1.700067307624568e-06	1.022762066549574e-08
0.58	-0.3905679213837459	-0.05082263817471126	0.6734022094613099	1.509812422204526	-0.2616667935782194	0.02921885550251368	-0.3828832663948259	1.172918472472523	1.172918472472842	-0.03505791124855578	0.1745194465297248	0.2621913046131789	0.05359710218058559	-0.3801094062259514	-0.09233430489899468	-0.6999183183721377	2.324115774745239	0.09086221859044291	0.4733791177781465	-0.4429959498828352	2.352812545396102	2.352812545396039	0.2904626488289253	0.0006643023905468895	0.5339617845805418	0.2437889612200796	-0.2597591389040823	0.04357881845699528	-0.005730201154099188	-0.3169607697727794	0.09728995053983047	-0.01074650955163813	0.2453762136137771	-10.7207242925854	10.06862527578269	-6.033225856437135	-1.067444916426558	-645.9476488960026	-25.83150231040284	-1.197753962870692	1.154327196303864	0.7684257007756071	0.1291824382278813	-3.011525852389878	0.1176673956135061	-0.976131304910264	2.151394161630632	-3.166263793635638	-3.166263793635635	-0.2030709956756879	-0.09767887183082009	-1.522726466740782	0.006249341337265381	4.563488131106515e-08	-2.025155989364696e-06	-1.77606155579711e-06	-4.03414013544946e-07	-8.121108930402261e-08	-1.644451075035446e-06	1.326503115008732e-08
0.59	-0.3943109478263206	-0.05170782625899602	0.6664110807019783	1.532900446473787	-0.260753171940151	0.03390073178810411	-0.3872059837577159	1.19628529670446	1.196285296704326	-0.03216201753047718	0.1745235567757213	0.2674537826875643	0.05603382093478134	-0.3684631434820414	-0.08472755752287188	-0.6981489066718082	2.293237141875537	0.09181793197383341	0.4629651580929408	-0.4215667767311066	2.320277868480007	2.320277868479811	0.2886937893815055	0.0001832198033902351	0.5184687309263568	0.2434693772706444	-0.2657489458732133	0.04346972484986296	-0.005586735186026877	-0.3217455443784628	0.09562898674732621	-0.01096815281263188	0.2502109815473174	-11.65190361025228	10.551915610095	-6.36612262581953	-0.4104248893238379	-651.7706756292885	-25.90462551102697	-0.7041975803511027	1.174676206311229	0.753084378924866	0.2245843597649486	-3.163831196569586	0.07823154639122373	-1.078719670756663	2.135790786382525	-3.338237526290851	-3.338237526310622	-0.1673966751931696	-0.01912288139551591	-1.572450655307231	-0.06336571392337884	4.425896703896978e-08	-1.842220899424213e-06	-1.644329457191744e-06	-3.780717660860975e-07	-7.288262652536465e-08	-1.57563124327519e-06	1.779754378559019e-08
